<svg width="100" height="100" viewBox="0 0 100 100" fill="none" xmlns="http://www.w3.org/2000/svg">
<path d="M48.3487 0.0565793C46.2847 -0.112833 44.4071 0.0698667 42.4562 0.99333C41.5561 1.37711 40.7207 1.89698 39.9793 2.53465L39.0106 3.26545L38.9673 3.4714L35.7114 6.90283L16.8154 26.5447L16.8087 26.5513C16.3713 27.0082 15.9871 27.513 15.6635 28.0561L15.1741 28.5677L9.58119 41.0776L8.77222 42.888L3.31247 52.9631C3.25434 53.0669 3.20102 53.1733 3.15267 53.282C2.48685 54.5376 2.06072 55.853 1.82103 57.2017L1.81104 57.2648L0 70.4192L1.7378 75.6278C3.09926 79.7278 5.40603 83.455 8.4726 86.5034L11.5687 89.5927C13.6791 91.7135 16.1241 93.4742 18.8062 94.8046L23.3404 97.0501L23.3504 97.0568C27.2318 99.0028 31.5174 100.011 35.8612 99.9999H35.8679L46.6775 99.9733V99.9999H75.7274C78.6903 99.9501 82.1126 98.4453 84.1234 96.1566C84.8323 95.5128 85.4758 94.8007 86.0443 94.0306L86.3006 93.6851L97.3466 81.1353C98.4105 79.9302 99.1863 78.4997 99.6154 76.9518C100.044 75.4039 100.116 73.779 99.8235 72.1997L99.434 70.1169C99.3895 69.4919 99.3039 68.8705 99.1777 68.2567V68.2401L97.7894 61.2144L97.8094 61.1879L94.72 45.6817C94.0501 42.2049 92.1237 39.0914 89.3068 36.9386L77.2221 26.2192L69.5319 12.0251L69.472 11.9321C68.0704 9.6998 66.8087 7.86616 65.0975 6.43446C63.3464 4.96622 61.3523 4.09922 58.8388 3.27874L54.6874 1.81714L52.9895 1.22254L52.9662 1.21589C52.536 1.04484 52.0996 0.88972 51.6579 0.750838C50.6033 0.416237 49.5184 0.185924 48.4186 0.0632232L48.3853 0.0599012L48.3487 0.0565793ZM75.6408 93.3563H53.3357V82.8029L83.947 77.9829L92.9356 71.5752L93.2718 73.3889V73.3955C93.4915 74.6113 93.1586 75.8304 92.353 76.7406L81.1139 89.5096L80.6878 90.0843L80.6811 90.091C80.3482 90.546 79.9653 90.9579 79.5492 91.3267L79.3927 91.4662L79.1331 91.7618L79.1231 91.7685C78.4106 92.589 76.7993 93.3297 75.6408 93.3563ZM35.0589 65.1541L50.0066 80.069L13.3864 70.1036L16.0164 59.7063C16.4492 57.8461 17.6143 56.2849 19.2456 55.2883L33.3611 46.8509V61.0683C33.3611 62.5963 33.9603 64.0579 35.0589 65.1541ZM33.3611 46.8509L24.6887 27.9498L40.5253 11.4969L40.7517 11.2577L33.3611 46.8509ZM57.2641 64.9216C55.0669 63.925 53.935 61.4337 54.6341 59.1084L61.8583 35.0984L87.8653 45.7813C87.9985 46.16 88.1084 46.552 88.1849 46.9539V46.9606L90.6917 59.5502L90.6784 59.5701L92.3263 67.9245L82.6486 74.8206L80.0119 75.2391L57.2641 64.9216ZM62.8237 31.9028L63.3231 30.2419L65.6268 18.7883L71.9255 30.408L82.9116 40.1542L62.8237 31.8995V31.9028ZM8.01651 73.4254H12.9436L46.6775 82.6036V93.3297L35.8579 93.3563H35.8512C32.549 93.3657 29.2908 92.5999 26.34 91.1207L21.7591 88.8519L21.7491 88.8486C19.719 87.8391 17.8689 86.5037 16.2727 84.8956L13.1766 81.8064C10.8494 79.4879 9.0972 76.6589 8.05979 73.545L8.01651 73.4254ZM50.6059 7.431L52.4868 8.08872C53.5754 8.46741 55.0602 8.99225 56.6549 9.55364L56.6948 9.56693L56.7348 9.58021C58.9919 10.3177 60.0339 10.8624 60.8196 11.5201C61.5021 12.0915 62.1512 12.8821 63.1267 14.3603L60.0938 29.4314L51.4481 58.1484C50.8787 60.0406 51.0146 62.0746 51.8309 63.8745C52.6472 65.6745 54.0887 67.119 55.8892 67.9411L69.9713 74.3256L51.2184 76.5745L37.4159 62.8023C37.1861 62.575 37.0038 62.3043 36.8798 62.006C36.7558 61.7078 36.6924 61.3879 36.6935 61.065V47.1864L45.0063 7.15197C45.3359 6.96927 45.6055 6.85965 45.8486 6.78657C46.2814 6.66034 46.834 6.59723 47.7695 6.67031C48.4253 6.74338 49.1111 6.91612 49.6737 7.08885C49.9466 7.17466 50.2164 7.26995 50.4827 7.37453L50.5127 7.38782L50.6059 7.431ZM9.19169 56.1055L9.24828 56.0025V55.9959L14.7413 45.861L20.6239 32.6867C20.7274 32.4361 20.8726 32.2048 21.0533 32.0024L22.2751 30.6704L29.0931 45.5289L17.5344 52.4382L17.5078 52.4548C16.3294 53.1655 15.3046 54.103 14.493 55.2128C13.6814 56.3226 13.0992 57.5825 12.7805 58.9191L10.793 66.7818H7.21752L8.38271 58.2979C8.51147 57.5712 8.76247 56.8715 9.1251 56.2284L9.14175 56.1985L9.19169 56.1055Z" fill="white"/>
</svg>
