<svg width="100" height="100" viewBox="0 0 100 100" fill="none" xmlns="http://www.w3.org/2000/svg">
<path d="M63.9321 39.7259C63.7896 39.4673 63.6897 39.1764 63.638 38.8699C63.5863 38.5634 63.5838 38.2473 63.6307 37.9397C63.6775 37.632 63.7729 37.3388 63.9112 37.0768C64.0495 36.8148 64.2281 36.5891 64.4368 36.4127L96.9787 8.81721C97.4 8.46004 97.9186 8.32499 98.4204 8.44177C98.9221 8.55855 99.3659 8.91759 99.654 9.43991C99.9422 9.96223 100.051 10.605 99.9569 11.2269C99.8627 11.8488 99.573 12.3989 99.1516 12.756L66.6194 40.3456C66.201 40.7051 65.6847 40.8442 65.1836 40.7325C64.6825 40.6208 64.2376 40.2674 63.9465 39.7497L63.9321 39.7259ZM99.6516 90.4537C99.3605 90.9714 98.9156 91.3248 98.4145 91.4365C97.9134 91.5482 97.3971 91.4091 96.9787 91.0496L51.9134 52.8234L29.0634 72.2076C30.8355 76.4768 31.2432 81.4173 30.2049 86.0427C29.1667 90.6681 26.759 94.6378 23.4627 97.159C20.1664 99.6803 16.2242 100.567 12.4232 99.6435C8.62223 98.7195 5.24236 96.0523 2.95857 92.1745C0.674784 88.2968 -0.34482 83.4939 0.103382 78.7251C0.551585 73.9563 2.43461 69.5726 5.37639 66.4494C8.31817 63.3262 12.1022 61.6934 15.9727 61.8772C19.8433 62.0609 23.5154 64.0476 26.2559 67.4406C26.4722 67.7087 26.6837 67.9888 26.8857 68.2748L48.5193 49.9334L26.8857 31.592C26.6837 31.878 26.4722 32.1879 26.2559 32.4262C23.5262 35.8012 19.87 37.776 16.0173 37.9564C12.1645 38.1368 8.39855 36.5096 5.47119 33.3996C2.54384 30.2895 0.670434 25.9255 0.224957 21.1786C-0.220521 16.4317 0.794701 11.6511 3.06796 7.79126C5.34122 3.93139 8.70527 1.27616 12.4886 0.355607C16.2719 -0.564945 20.1961 0.316908 23.4779 2.82513C26.7597 5.33334 29.1576 9.28341 30.193 13.8868C31.2284 18.4902 30.825 23.4082 29.0634 27.6591L52.9518 47.9193L99.1468 87.1048C99.3596 87.2813 99.5417 87.5088 99.6826 87.7737C99.8235 88.0386 99.9203 88.3358 99.9673 88.6477C100.014 88.9596 100.011 89.28 99.9564 89.5902C99.9022 89.9003 99.7986 90.1939 99.6516 90.4537ZM23.5493 29.0774C24.0492 28.4579 24.5029 27.7838 24.905 27.0633C26.5896 24.0339 27.2674 20.3163 26.7975 16.6834C26.3277 13.0505 24.7463 9.78178 22.3822 7.55688C20.018 5.33197 17.053 4.32204 14.1036 4.73705C11.1542 5.15206 8.44729 6.96008 6.54566 9.78522C4.64403 12.6104 3.69401 16.2352 3.89309 19.9062C4.09218 23.5772 5.42506 27.0119 7.61462 29.4962C9.80418 31.9804 12.682 33.3231 15.6497 33.2451C18.6174 33.1671 21.4466 31.6744 23.5493 29.0774ZM26.9145 80.9195C26.922 78.0513 26.2262 75.248 24.9194 72.881V72.8452C24.5142 72.1096 24.0556 71.4215 23.5493 70.7894C21.9341 68.7943 19.8781 67.4372 17.6411 66.8894C15.404 66.3416 13.0862 66.6277 10.9802 67.7116C8.8743 68.7955 7.07469 70.6285 5.80865 72.9793C4.54262 75.3301 3.86694 78.0931 3.86694 80.9195C3.86694 83.7459 4.54262 86.509 5.80865 88.8597C7.07469 91.2105 8.8743 93.0435 10.9802 94.1274C13.0862 95.2113 15.404 95.4974 17.6411 94.9496C19.8781 94.4018 21.9341 93.0447 23.5493 91.0496C24.623 89.721 25.4734 88.1415 26.051 86.4026C26.6287 84.6637 26.9222 82.8 26.9145 80.9195Z" fill="white"/>
</svg>
